<?xml version="1.0" encoding="UTF-8"?>
<svg id="Layer_2" data-name="Layer 2" xmlns="http://www.w3.org/2000/svg" viewBox="0 0 80.05 24.41">
  <defs>
    <style>
      .cls-1 {
        fill: #1bb1aa;
        stroke-width: 0px;
      }
    </style>
  </defs>
  <g id="Layer_1-2" data-name="Layer 1">
    <path class="cls-1" d="m52.42,20.67c-1.03,0-2.04-.21-2.98-.61-.91-.39-1.74-.96-2.44-1.68-.7-.71-1.26-1.56-1.64-2.48-.4-.96-.6-2-.6-3.04,0-.84.13-1.68.4-2.48.25-.77.62-1.5,1.1-2.15h0l6.02-7.44h4.03l-3.46,4.27c1.97.1,3.82.97,5.15,2.41,1.37,1.46,2.12,3.39,2.12,5.39,0,1.04-.2,2.08-.6,3.04-.38.92-.94,1.77-1.64,2.48-.69.71-1.52,1.28-2.44,1.68-.94.41-1.96.62-2.99.61h-.02Zm0-12.43c-1.21,0-2.37.49-3.21,1.35-.86.87-1.33,2.05-1.33,3.27s.47,2.39,1.33,3.27c.84.87,2,1.36,3.21,1.35,1.21,0,2.37-.49,3.21-1.35.86-.87,1.33-2.05,1.33-3.27s-.47-2.39-1.33-3.27c-.84-.87-2-1.36-3.21-1.35Z"/>
    <path class="cls-1" d="m68.61,24.31c-6.32,0-11.44-5.22-11.44-11.66S62.29.99,68.61.99s11.44,5.22,11.44,11.66-5.12,11.66-11.44,11.66Zm5.62-17.88c-1.52-1.44-3.53-2.24-5.62-2.24-4.58,0-8.3,3.79-8.3,8.45s3.72,8.46,8.3,8.46,8.3-3.79,8.3-8.46c0-1.81-.57-3.57-1.63-5.03l-5.77,6.48c-.28.33-.78.36-1.11.08,0,0-.01-.01-.02-.02l-3.35-3.17,1.09-1.17,2.76,2.62,5.34-6h0Z"/>
    <path class="cls-1" d="m24.23,7.86h-2.57l-2.39,3.87-2.69-3.87h-2.63l3.75,5.39-3.71,5.82h2.59l2.41-3.97,2.75,3.97h2.63l-3.86-5.56,3.71-5.66h0Z"/>
    <path class="cls-1" d="m12.86,7.86h-2.33v11.21h2.33V7.86Z"/>
    <path class="cls-1" d="m29.29,16.69c-.24-.24-.36-.69-.36-1.32v-5.53h2.71v-1.97h-6.67v1.97h1.61v5.5c0,1.34.31,2.3.93,2.88.62.58,1.53.87,2.72.87h1.43v-2.01h-1.12c-.6,0-1.02-.12-1.26-.37v-.02Z"/>
    <path class="cls-1" d="m41.39,7.86l-3.12,8.24-3.36-8.24h-2.61l4.73,10.95-2.43,5.6h2.59l6.79-16.54h-2.59Z"/>
    <path class="cls-1" d="m8.8,14.03c-.2-.27-.44-.52-.72-.71-.3-.22-.64-.38-1-.49-.15-.04-.39-.11-.73-.2l-1.04-.27c-.35-.09-.68-.18-.96-.26-.29-.08-.46-.12-.49-.13-.33-.09-.64-.25-.89-.47-.22-.21-.34-.51-.32-.82,0-.22.05-.43.17-.61.11-.16.26-.3.44-.4.19-.1.4-.18.61-.22.22-.04.45-.07.68-.07.56-.02,1.11.12,1.58.42.39.27.62.74.67,1.4v.14h2.27v-.15c.03-1.09-.47-2.12-1.33-2.78-.42-.32-.9-.56-1.41-.71-1.05-.3-2.16-.31-3.22-.03-.49.13-.95.34-1.36.62-.4.28-.74.65-.98,1.08-.26.47-.38,1-.37,1.54,0,.3.04.61.12.9.09.31.23.6.43.85.22.29.49.53.8.72.38.23.8.4,1.24.51.77.21,1.43.38,1.95.51.46.11.92.25,1.37.41.22.08.41.21.57.38.19.24.28.54.26.85,0,.19-.04.38-.11.56-.08.19-.2.35-.36.48-.2.16-.44.28-.68.35-.34.1-.7.15-1.05.14-.36,0-.72-.04-1.06-.13-.3-.08-.59-.21-.84-.4-.24-.18-.43-.41-.56-.68-.15-.32-.21-.67-.21-1.02v-.16H0v.16c0,.64.13,1.28.41,1.86.24.51.6.95,1.05,1.3.45.35.97.6,1.53.75.59.16,1.19.24,1.8.24h.05c.56,0,1.11-.07,1.66-.2.53-.12,1.03-.34,1.48-.64.44-.29.8-.68,1.06-1.14.28-.51.42-1.09.4-1.68,0-.31-.05-.62-.14-.92-.1-.31-.24-.6-.43-.86l-.07-.02Z"/>
    <path class="cls-1" d="m3.08,3.3c0-.8.33-1.58,1.28-1.57.84,0,1.02.62,1.06.84v.05h2.24s0-.05,0-.05c-.19-1.53-1.28-2.42-3.24-2.44C2.22.11.79,1.38.78,3.29c0,1.79,1.3,3.19,3.61,3.21,2.09.01,3.28-1.28,3.29-2.52v-.06h-2.24v.03c-.14.55-.41.95-1.09.94-.95,0-1.27-.79-1.26-1.59h0Zm8.18,3.04h2.06l-.02-3.55c0-1.2-.87-1.78-1.81-1.77-.76,0-1.2.25-1.53.59l.02-1.59h-2.06v6.33h2.06v-2.75c-.01-.77.39-.91.69-.91.5,0,.57.33.57.93v2.72h.02Zm4.15-3.19c.1-.47.4-.72.91-.72.44,0,.75.31.78.72h-1.7.01Zm-.01,1.13h3.7v-.08c0-2-.9-3.15-2.95-3.15-1.64,0-2.73,1.24-2.72,2.75,0,1.73,1.27,2.7,2.91,2.7,1.17,0,2.26-.53,2.66-1.65l.03-.09h-1.93l-.02.04c-.14.22-.45.33-.75.33-.54,0-.85-.34-.92-.85h-.01Zm5.79-.52c0-.62.11-1.19.78-1.2.19,0,.34.05.45.15.11.09.18.24.19.43v.06h1.97v-.07c-.13-1.44-1.31-2.1-2.65-2.1-1.55,0-2.8,1.1-2.79,2.74,0,1.64,1.26,2.71,2.82,2.71,1.39,0,2.5-.8,2.69-2.21v-.07h-1.97v.06c-.04.38-.31.68-.69.69-.67,0-.78-.56-.79-1.18h-.01Zm7.18-.65l1.86-1.99h-2.37l-1.13,1.36V0h-2.05v6.32h2.06v-1.5l.26-.29,1.02,1.79h2.48l-2.14-3.21h0Zm3.08-.04c.1-.47.4-.72.91-.72.44,0,.75.31.78.72h-1.7.01Zm0,1.13h3.7v-.08c0-2-.9-3.15-2.95-3.15-1.64,0-2.73,1.24-2.72,2.75,0,1.73,1.27,2.7,2.91,2.7,1.17,0,2.26-.53,2.66-1.65l.03-.09h-1.93l-.02.04c-.14.22-.45.33-.75.33-.54,0-.85-.34-.92-.85h0Zm10.54-1.54h1.88v-.07c-.06-1.36-1.44-1.66-2.53-1.65-.75,0-1.73.19-2.19.83v-.73h-.05c-.19-.06-.38-.09-.58-.09-.66,0-1.07.29-1.38.79v-.66h-1.99l.02,5.19h2.06v-2.07c0-1.06.39-1.47,1.1-1.47.27,0,.44.03.58.07.09.8.74,1.23,2.12,1.46.92.16,1.01.24,1.01.47s-.32.33-.59.33c-.23,0-.39-.06-.47-.13-.14-.12-.2-.25-.21-.4v-.06h-1.97v.07c.04,1.37,1.41,1.84,2.6,1.84s2.64-.39,2.63-1.86c0-.87-.61-1.27-1.26-1.47-.33-.11-.67-.17-.98-.22-.15-.03-.29-.05-.42-.08-.12-.03-.22-.05-.3-.08-.11-.05-.19-.1-.19-.2,0-.26.24-.33.52-.33.14,0,.29.05.39.13.11.08.19.19.2.33,0,0,0,.06,0,.06Z"/>
  </g>
</svg>