<?xml version="1.0" encoding="UTF-8"?>
<svg id="Layer_2" data-name="Layer 2" xmlns="http://www.w3.org/2000/svg" viewBox="0 0 117.43 16.5">
  <defs>
    <style>
      .cls-1 {
        fill: #fcfdfc;
      }

      .cls-1, .cls-2, .cls-3, .cls-4, .cls-5, .cls-6, .cls-7, .cls-8, .cls-9 {
        stroke-width: 0px;
      }

      .cls-2 {
        fill: #fefefe;
      }

      .cls-3 {
        fill: #51b748;
      }

      .cls-4 {
        fill: #f9fcf9;
      }

      .cls-5 {
        fill: #51b848;
      }

      .cls-6 {
        fill: #52b849;
      }

      .cls-7 {
        fill: #fdfefd;
      }

      .cls-8 {
        fill: #fdfdfc;
      }

      .cls-9 {
        fill: #fdfdfd;
      }
    </style>
  </defs>
  <g id="Layer_1-2" data-name="Layer 1">
    <path class="cls-7" d="m84.73,16.5h-6.4c.2,0,.4,0,.6-.1,1.5-.3,2.7-1.1,3.6-2.4,1.3-1.9,2.7-3.8,4-5.8.5-.7,1-1.4,1.5-2.1h0c-1,3.1-2,6.2-3,9.3-.1.4-.2.7-.3,1.1h0Z"/>
    <path class="cls-7" d="m69.23,16.5h-2.8v-.1c.8-2.5,1.6-5,2.3-7.5,0-.1.1-.1.2-.1h2.7v.1c-.6,2.1-1.3,4.1-1.9,6.2-.2.4-.3.9-.5,1.4h0Z"/>
    <path class="cls-3" d="m78.33,16.5h-3.3c.1-.3.2-.6.2-.8.3-.9.5-1.7.8-2.6,0-.1.1-.1.2-.1h1.8c.4,0,.6-.2.6-.6v-2.5c0-1.4-.1-2.8-.1-4.2v-1.9h4.5c-.1,1.6-.3,3.1-.4,4.6h0c.1-.1.2-.3.3-.4.8-1.4,1.6-2.7,2.5-4.1q.1-.1.3-.1h7.2c-.1.2-.1.4-.2.6h0c.7-.7,1.5-.9,2.4-.9.4,0,.9,0,1.3.1,1,.2,1.7,1,1.8,2.1.1.5,0,1-.1,1.5v.1h0c.3-.4.5-.8.8-1.2,1.3-1.5,2.9-2.3,4.8-2.6,1-.1,1.9-.1,2.9.2.7.3,1.3.7,1.7,1.4.3.6.3,1.2.2,1.8v.1q0-.1.1-.1c.3-1,.6-2,.9-3q0-.1.2-.1h3.9c-.1.3-.2.5-.3.8v.1h0c.3-.4.6-.7,1-1,.7-.4,1.4-.4,2.1-.3.3.1.6.2.9.3q.1.1.1.2c-.3,1-.6,1.9-.9,2.9-.1.3-.2.5-.3.8-.3-.2-.7-.4-1-.5-1.5-.3-2.9.6-3.3,2-.3,1-.6,2.1-1,3.1-.1.4-.2.7-.3,1.1,0,.1-.1.1-.1.1h-3.9c0-.1.1-.2.1-.3.2-.7.5-1.5.7-2.2v-.2h0l-.1.1c-.7,1.1-1.7,1.8-2.9,2.3-1,.4-2.1.6-3.2.5-.7,0-1.3-.1-2-.3-1.1-.4-1.7-1.1-1.9-2.3,0-.3-.1-.6-.1-.9-.5,1.5-1.4,2.6-2.9,3.2-1.5.5-2.9.5-4.3-.3-.4,1.2-.7,2.3-1.1,3.5h-4c.1-.3.2-.7.3-1,1-3.1,2-6.2,3-9.3v-.1h0v.1c-.5.7-1,1.4-1.5,2.1-1.3,1.9-2.7,3.8-4,5.8-.9,1.3-2.1,2-3.6,2.4-.4-.1-.6-.1-.8,0Zm14.6-9.6c-.4,0-.7.1-.9.3-.3.2-.5.6-.7.9-.3.6-.5,1.2-.5,1.9,0,.5.3.9.8.9.3,0,.6-.1.8-.3.4-.3.7-.7.9-1.2.3-.6.5-1.2.4-1.8-.1-.5-.3-.7-.8-.7Zm8,3.1c0,.4.2.8.6.9.6.2,1.4.1,1.9-.4.1-.1.2-.1.3-.1h3.7c0-.2.1-.3.1-.5-2.3.1-4.4.1-6.6.1Zm3.8-2.6c0-.4-.2-.7-.5-.8-.2-.1-.5-.2-.8-.1-.6,0-1.1.2-1.5.7-.1.1-.1.2-.2.3,1-.1,2-.1,3-.1Z"/>
    <path class="cls-3" d="m66.43,16.5h-4.7c.3-.9.5-1.7.8-2.6.9-2.8,1.8-5.6,2.7-8.4.6-1.8,1.1-3.5,1.7-5.3,0-.1.1-.1.2-.1h4.5c-.5,1.7-1.1,3.4-1.6,5.2h2.7c.1,0,.2,0,.2-.2.5-1.6,1-3.2,1.5-4.9,0-.1.1-.2.2-.2h4.6c-.1.2-.1.4-.2.6-1.3,4.2-2.7,8.5-4,12.7-.3,1-.6,2-1,3h-4.7c.1-.5.3-.9.4-1.4.6-2.1,1.3-4.1,1.9-6.2v-.1h-2.7c-.1,0-.2,0-.2.1-.7,2.7-1.5,5.2-2.3,7.8,0-.1,0,0,0,0Z"/>
    <path class="cls-5" d="m55.43,8.6h2.9c.1.2.1.3.2.4.2.4.6.4,1,.4.2,0,.4-.1.5-.1.2-.1.2-.2.2-.4s-.1-.3-.3-.3c-.4-.1-.7-.2-1.1-.3-.7-.1-1.4-.3-2.1-.6-.6-.3-1-.8-1.1-1.5l-.1-.1c-.4-.1-.8-.1-1.2,0-.6.1-.9.6-1.1,1.1-.1.3-.1.6-.1.8v3.1h-3v-3h-5.4c0,.4.3,1,.8,1.1.4.2.9.1,1.3-.1.1,0,.2-.1.2-.2.1-.2.3-.2.5-.2h2.5c-.2.7-.6,1.2-1.1,1.7-.7.5-1.5.8-2.3.8-1,.1-2,0-2.9-.5-1-.5-1.6-1.4-1.8-2.5-.2-1.2-.1-2.3.6-3.3.6-.9,1.5-1.4,2.7-1.6.8-.1,1.5,0,2.2.2,1.2.3,2,1.1,2.4,2.3.2.5.3,1.1.3,1.7v.1V3.4h2.9v.9h0l.1-.1c.5-.7,1.2-1,2.1-1,.2,0,.4.1.6.1.1,0,.1.1.1.2v.9c.1-.1.2-.2.3-.3.5-.5,1.1-.7,1.7-.8,1.1-.2,2.1-.2,3.2.2.5.2,1,.4,1.3.9.3.4.4.9.4,1.4h-2.7c-.1-.6-.8-.9-1.4-.7-.2.1-.3.2-.3.4s.1.2.3.3c.4.1.7.2,1.1.2.6.1,1.3.2,1.9.5.7.3,1.2.8,1.3,1.6.2,1.2-.3,2.2-1.5,2.7-1.5.6-3,.6-4.5,0-.7-.3-1.3-.8-1.5-1.6,0-.1-.1-.4-.1-.6Zm-8.2-2.1c0-.6-.5-1-1.1-1-.7,0-1.2.3-1.3,1h2.4Z"/>
    <path class="cls-5" d="m10.13,5.8h-3.1q-.1,0-.2-.1c-.2-.7-.7-1.1-1.4-1.1-1-.1-1.7.4-1.9,1.5-.2.7-.1,1.4.2,2.1.3.6.8.9,1.4,1,.4,0,.9,0,1.2-.3s.4-.6.5-1q0-.1.1-.1h3.2c0,.5-.1.9-.3,1.3-.5,1.1-1.3,1.7-2.4,2.1-.9.3-1.9.4-2.9.3-.8-.1-1.5-.3-2.2-.7C1.03,10.1.23,9,.03,7.5c-.1-1.1,0-2.1.6-3,.6-1,1.5-1.7,2.7-2,1.5-.4,3-.4,4.4.1,1.4.5,2.2,1.6,2.4,3.2h0Z"/>
    <path class="cls-3" d="m15.33,11.2v-4.6c-.1-.5-.4-.8-1-.7-.4.1-.7.4-.8.8v4.4h-3V1.9h3v2.3c.1,0,.1-.1.2-.1.6-.5,1.2-.7,2-.7.5,0,1,.1,1.5.3.7.4,1.1,1,1.2,1.8.1.6,0,1.1,0,1.7v3.9c-1.1.1-2.1.1-3.1.1Z"/>
    <path class="cls-6" d="m34.93,2h3v3.6s.1,0,.1-.1c.5-.6,1-1.2,1.5-1.8,0-.1.1-.1.2-.1h3.4c-.9,1-1.8,1.9-2.7,2.9,1,1.6,2.1,3.1,3.1,4.7h-3.5c-.1,0-.2,0-.3-.1-.4-.8-.9-1.5-1.3-2.3,0-.1-.1-.1-.1-.2-.1.1-.2.3-.3.4v2.2h-3c-.1-3-.1-6.1-.1-9.2Z"/>
    <path class="cls-5" d="m21.43,8.2c.1.9.8,1.4,1.6,1.2.3-.1.6-.2.8-.5h2.8c-.2.5-.4,1-.8,1.3-.6.7-1.5,1-2.4,1.1-1,.1-1.9.1-2.8-.3-1.2-.6-1.9-1.5-2.1-2.8-.2-1.2,0-2.2.8-3.2.7-.9,1.6-1.4,2.7-1.5.8-.1,1.5,0,2.2.2,1.3.4,2,1.3,2.4,2.5.2.6.2,1.2.2,1.8v.2c-1.9,0-3.6,0-5.4,0Zm2.4-1.6c-.1-.7-.6-1.1-1.3-1-.6,0-1.1.4-1.1,1h2.4Z"/>
    <path class="cls-5" d="m34.73,6.7h-2.9c0-.1,0-.2-.1-.3-.1-.4-.4-.6-.7-.6-.7-.1-1.1.2-1.2.9-.1.6-.1,1.2,0,1.8.1.5.5.8,1.1.8.5,0,.8-.4.9-.9v-.2h2.9c0,.3-.1.6-.2.9-.4,1.2-1.3,1.9-2.4,2.2-1.3.4-2.6.2-3.7-.5-1-.6-1.5-1.6-1.6-2.7-.1-.9,0-1.8.5-2.6.6-1,1.5-1.6,2.7-1.8,1-.2,2-.1,2.9.3,1,.5,1.6,1.3,1.8,2.4v.3Z"/>
    <path class="cls-7" d="m92.93,6.9c.5,0,.8.2.8.7.1.7-.1,1.3-.4,1.8-.2.5-.5.9-.9,1.2-.2.2-.5.3-.8.3-.5,0-.8-.4-.8-.9,0-.7.2-1.3.5-1.9.2-.4.4-.7.7-.9.2-.2.5-.3.9-.3Z"/>
    <path class="cls-4" d="m100.93,10h6.5c0,.2-.1.3-.1.5h-3.7c-.1,0-.2,0-.3.1-.5.5-1.3.6-1.9.4-.3-.3-.6-.6-.5-1Z"/>
    <path class="cls-9" d="m104.73,7.4h-3c.1-.1.1-.2.2-.3.4-.5.9-.7,1.5-.7.3,0,.5,0,.8.1.3.3.4.6.5.9Z"/>
    <path class="cls-2" d="m107.23,10.8h0c-.1.1-.1,0,0,0-.1,0,0,0,0,0h0Z"/>
    <path class="cls-8" d="m47.23,6.5h-2.4c.1-.7.7-1.1,1.3-1,.6,0,1.1.4,1.1,1Z"/>
    <path class="cls-1" d="m23.83,6.6h-2.4c.1-.6.6-1,1.1-1,.7-.1,1.3.3,1.3,1Z"/>
  </g>
</svg>