<?xml version="1.0" encoding="UTF-8"?>
<svg id="Layer_2" data-name="Layer 2" xmlns="http://www.w3.org/2000/svg" viewBox="0 0 95.28 14.3">
  <defs>
    <style>
      .cls-1 {
        fill: #fdfefe;
      }

      .cls-1, .cls-2 {
        stroke-width: 0px;
      }

      .cls-2 {
        fill: #00a8a1;
      }
    </style>
  </defs>
  <g id="Layer_1-2" data-name="Layer 1">
    <g>
      <path class="cls-2" d="m33.94,14.3c-.1,0-.3,0-.4-.1-1.1-.1-2.2-.4-3.1-1.1-1.2-.8-1.9-1.9-2.2-3.3-.2-.7-.2-1.4-.1-2.1.1-1.3.5-2.4,1.4-3.4s2-1.7,3.3-1.9c.8-.2,1.6-.2,2.3-.1.9.1,1.7.3,2.5.6,1.3.6,2.1,1.6,2.5,2.9.2.6.4,1.3.4,1.9,0,.4.1.9.1,1.3v.2h-8.2c.1.4.2.8.4,1.1.4.5.9.8,1.5.8.5,0,1-.1,1.5-.4.1-.1.2-.1.2-.2q.1-.1.3-.1h4.1c-.2.3-.3.7-.5,1-.8,1.3-1.9,2.1-3.3,2.5-.5.2-1.1.3-1.7.3h-.1c-.3.1-.6.1-.9.1Zm-1.5-7.4h3.7c-.2-1.1-.8-1.6-2-1.6-.9,0-1.6.6-1.7,1.6Z"/>
      <path class="cls-2" d="m83.84,9.8h4.3c.1.2.1.5.3.7.2.4.6.6,1,.6s.9,0,1.3-.2c.3-.2.4-.5.3-.8-.1-.2-.2-.3-.4-.3-.4-.1-.7-.2-1.1-.3-1-.2-2-.3-3-.7-.7-.2-1.3-.6-1.8-1.1-.4-.4-.6-.9-.7-1.4,0-.1-.1-.1-.1-.2-.7-.2-1.4-.2-2.1,0s-1.1.7-1.3,1.4c-.1.5-.2.9-.2,1.4v4.8h-4.5V2.3h4.4v1.4c.1-.2.3-.4.4-.5.5-.6,1.1-1,1.9-1.2.7-.1,1.4-.1,2.1.1v1.6c.1-.2.3-.3.4-.4.6-.6,1.3-.9,2-1.1.5-.2,1.1-.3,1.7-.3h1.7c1.1.1,2.1.3,3,.9.8.5,1.3,1.3,1.5,2.3v.6h-4.1c0-.2-.1-.4-.2-.6-.3-.3-.6-.5-1-.5-.3,0-.6,0-.9.1-.2.1-.4.3-.4.5s0,.3.2.5.5.2.8.3c.9.2,1.7.3,2.6.5.7.2,1.4.4,2,.8.8.5,1.2,1.2,1.3,2.1.1,1,0,1.9-.6,2.7-.4.6-1.1,1-1.8,1.3-.6.3-1.3.4-2,.5-.6.1-1.2.1-1.8.1-1.4,0-2.7-.3-3.8-1.1-.8-.6-1.3-1.4-1.5-2.4.2-.2.2-.4.1-.7Z"/>
      <path class="cls-2" d="m15.24,5.7h-4.9c-.1-.4-.2-.8-.5-1.2-.3-.4-.7-.6-1.2-.7-.6-.1-1.2-.1-1.8.1-.8.3-1.2.9-1.5,1.7-.3.7-.3,1.5-.2,2.3.1.6.2,1.3.6,1.8.4.6,1,.9,1.7,1,.5.1.9,0,1.4-.1.7-.2,1.1-.8,1.3-1.4.1-.2.1-.3.2-.5,0-.1.1-.1.1-.1h4.8c0,.5,0,.9-.2,1.3-.2.8-.6,1.5-1.2,2.1-1,1.1-2.3,1.7-3.7,2-.6.1-1.2.2-1.7.2-1.6.1-3.1-.2-4.5-.8-.8-.4-1.5-.8-2.1-1.5-.9-.9-1.5-2-1.7-3.3-.1-.5-.2-1-.1-1.6C.04,5.5.44,4.1,1.34,2.9c.8-1,1.8-1.7,2.9-2.2.7-.3,1.4-.4,2.2-.5.7-.1,1.4-.1,2.1-.1,1.2,0,2.3.2,3.4.7,1.7.8,2.7,2.1,3.1,3.9,0,.1.1.3.1.4.1.3.1.4.1.6Z"/>
      <path class="cls-2" d="m23.24,13.9q0-.1,0,0v-6.3c0-.3-.1-.6-.1-.9-.1-.4-.4-.6-.9-.7-.4,0-.7,0-1.1.2s-.6.6-.6,1c-.1.3-.1.5-.1.8v6.1h-4.5V.2h4.5v3.4c.1-.1.2-.2.4-.3.6-.5,1.3-.8,2-.9.4,0,.7-.1,1.1-.1.9,0,1.8.2,2.5.8.7.5,1.1,1.2,1.3,2,.1.4.1.8.1,1.2v7.6h-4.6Z"/>
      <path class="cls-2" d="m52.84,0h4.5v5.4c.2-.2.4-.4.5-.6.4-.5.8-1,1.3-1.5.2-.2.4-.4.5-.6.1-.1.2-.2.3-.2h5c-1.4,1.5-2.7,2.9-4.1,4.4,1.6,2.3,3.1,4.7,4.7,7h-5.3c-.1,0-.2,0-.2-.1-.7-1.3-1.4-2.5-2.2-3.8-.2.2-.4.4-.6.6v3.3h-4.5c.1-4.6.1-9.3.1-13.9Z"/>
      <path class="cls-2" d="m75.84,9.2h-8.2c.1.8.4,1.4,1.1,1.7.8.3,1.6.2,2.4-.3l.1-.1c.1-.2.3-.2.5-.2h3.9c-.1.4-.3.8-.5,1.1-.8,1.2-1.9,2-3.3,2.4-.8.2-1.6.3-2.4.3-1.4,0-2.8-.4-3.9-1.2-1.1-.8-1.7-1.8-2-3.1-.2-.7-.2-1.4-.2-2,.1-1.4.5-2.6,1.4-3.6s2-1.6,3.3-1.9c.7-.1,1.5-.1,2.2-.1.8.1,1.6.2,2.4.6,1.1.5,1.9,1.3,2.5,2.4.3.6.5,1.3.6,2,.1.7.1,1.3.1,2Zm-4.4-2.5c-.1-.5-.3-1-.7-1.3-.4-.3-.9-.4-1.4-.3-.9.1-1.5.7-1.6,1.6,1.2,0,2.5,0,3.7,0Z"/>
      <path class="cls-2" d="m52.74,9.2c-.1,1.1-.5,2.1-1.2,2.9-.9,1.1-2,1.7-3.3,1.9-.6.1-1.2.2-1.8.1-1.3-.1-2.5-.4-3.5-1.2-1.2-.9-1.9-2-2.2-3.4-.1-.6-.2-1.1-.1-1.7.1-1.3.5-2.5,1.3-3.6.8-1,1.9-1.6,3.1-1.9.8-.2,1.6-.3,2.4-.2,1.1.1,2.1.3,3,.9,1.1.7,1.8,1.7,2.1,3,.1.3.1.6.1.9h-4.3c0-.2-.1-.3-.1-.5-.1-.5-.4-.7-.9-.8-.4-.1-.9-.1-1.3.1-.5.2-.7.7-.8,1.2-.1.6-.1,1.2-.1,1.8,0,.5.1,1,.3,1.4.3.5.7.7,1.2.7,1.1.1,1.7-.7,1.7-1.6v-.1c1.5.1,2.9.1,4.4.1Z"/>
      <path class="cls-1" d="m32.44,6.9c.2-1,.8-1.5,1.8-1.6,1.1,0,1.8.5,2,1.6h-3.8Z"/>
      <path class="cls-1" d="m71.44,6.7h-3.7c.1-.9.7-1.4,1.6-1.6.5-.1,1,0,1.4.3.5.4.7.8.7,1.3Z"/>
    </g>
  </g>
</svg>