<?xml version="1.0" encoding="UTF-8"?>
<svg id="Layer_2" data-name="Layer 2" xmlns="http://www.w3.org/2000/svg" xmlns:xlink="http://www.w3.org/1999/xlink" viewBox="0 0 122.3 14">
  <defs>
    <style>
      .cls-1 {
        fill: none;
      }

      .cls-1, .cls-2 {
        stroke-width: 0px;
      }

      .cls-3 {
        clip-path: url(#clippath);
      }

      .cls-2 {
        fill: #404041;
      }
    </style>
    <clipPath id="clippath">
      <rect class="cls-1" width="122.3" height="14"/>
    </clipPath>
  </defs>
  <g id="Layer_1-2" data-name="Layer 1">
    <g class="cls-3">
      <path class="cls-2" d="m115.4,10c-.4.3-.8.4-1.3.4s-.9-.2-1.3-.4c-.5-.4-.9-1.1-.9-1.9s.3-1.4.8-1.9c.4-.3.9-.5,1.4-.5s.9.2,1.3.4v-.8c-.4-.2-.8-.3-1.3-.3-.7,0-1.3.3-1.8.7-.6.6-1.1,1.4-1.1,2.4,0,1.1.5,2,1.2,2.5.6.4,1.2.6,1.7.6s.9-.1,1.3-.3c0,0,0-.9,0-.9Z"/>
    </g>
  </g>
</svg>