<?xml version="1.0" encoding="UTF-8"?>
<svg id="Layer_2" data-name="Layer 2" xmlns="http://www.w3.org/2000/svg" viewBox="0 0 142.3 19">
  <defs>
    <style>
      .cls-1 {
        fill: #00977a;
        stroke-width: 0px;
      }
    </style>
  </defs>
  <g id="Layer_1-2" data-name="Layer 1">
    <g id="househome">
      <g id="house_home" data-name="house home">
        <path class="cls-1" d="m22.8,9.4c.1,1.8-1.3,3.3-3.1,3.4h-.3c-1.8.1-3.3-1.4-3.4-3.2v-.2c-.1-1.8,1.3-3.3,3.1-3.4h.3c1.8-.1,3.3,1.3,3.4,3.1.1.1.1.2,0,.3m-3.3-5.7c-3.1-.1-5.6,2.4-5.7,5.5v.3c0,3.1,2.6,5.7,5.7,5.7s5.7-2.6,5.7-5.7h0c.1-3.1-2.3-5.7-5.4-5.8h-.3"/>
        <path class="cls-1" d="m45.3,8.1h0c-.2-.1-.3-.1-.5-.2-1.1-.5-1.3-.7-1.3-1.1s.5-.9,1.3-.9c.7,0,1.3.3,1.7.9l.4.6,1.7-1.5-.3-.5c-.8-1.1-2.1-1.8-3.5-1.8-1.8-.2-3.4,1.2-3.6,3v.2c0,2,1.7,2.7,2.7,3.1.2.1.4.2.6.2,1.5.6,2,.9,2,1.5s-.7,1.1-1.7,1.1c-.9.1-1.7-.4-2.1-1.1l-.4-.6-1.8,1.5.3.5c.9,1.4,2.4,2.2,4,2.1,2.3,0,3.9-1.4,3.9-3.4,0-2.2-2-3-3.4-3.6"/>
        <path class="cls-1" d="m53.6,8.2c.3-1.4,1.6-2.3,3-2.2,1.4-.1,2.6.9,2.8,2.2h-5.8Zm8.3,1.6v-.5c0-3.3-2.2-5.7-5.3-5.7s-5.5,2.4-5.5,5.4v.4c-.1,3.1,2.3,5.7,5.4,5.8h.2c1.9,0,3.6-.8,4.8-2.3l.3-.5-1.8-1.5-.3.6c-.7.9-1.8,1.4-2.9,1.4-1.5.1-2.8-.9-3.1-2.4h8l.2-.7Z"/>
        <path class="cls-1" d="m108.2,9.4c.1,1.8-1.3,3.3-3.1,3.4h-.3c-1.8.1-3.3-1.4-3.4-3.2v-.2c0-1.9,1.5-3.4,3.4-3.4s3.4,1.5,3.4,3.4m-3.4-5.7c-3.1-.1-5.6,2.4-5.7,5.5v.3c-.1,3.1,2.4,5.7,5.5,5.8h.2c3.1.1,5.6-2.4,5.7-5.5v-.3c.1-3.1-2.2-5.7-5.3-5.8h-.4"/>
        <path class="cls-1" d="m134,8.2c.3-1.4,1.6-2.3,3-2.2,1.4-.1,2.6.9,2.8,2.2h-5.8Zm3-4.5c-3,0-5.5,2.4-5.5,5.4v.4c-.1,3.1,2.3,5.7,5.4,5.8h.2c1.9,0,3.6-.8,4.8-2.3l.3-.5-1.8-1.5-.4.6c-.7.9-1.8,1.4-2.9,1.4-1.5.1-2.8-.9-3.1-2.4h8.2l.1-.7h0v-.5c.1-3.4-2.1-5.7-5.3-5.7"/>
        <path class="cls-1" d="m37.1,12.4l-.3.2v-7.6c0-.6-.5-1.2-1.1-1.2h-1.3v6.5c.1,1.3-1,2.4-2.3,2.5h-.1c-1.1.1-2.1-.7-2.2-1.8V3.8h-2.3v6.8c-.2,2.3,1.6,4.3,3.9,4.5h.6c1,0,2-.3,2.8-.9.3.6,1,1,1.7.9.5,0,.9-.2,1.3-.5l.3-.3-1-1.9Z"/>
        <path class="cls-1" d="m2.4,1.7H0v13.3c0,.6.5,1.2,1.1,1.2h1.3v-5.6h4.6v-2.4H2.4V1.7Z"/>
        <path class="cls-1" d="m10.2,1.7h-1.2v14.5h2.4V2.9c0-.6-.5-1.2-1.2-1.2"/>
        <path class="cls-1" d="m94.4,16.2h2.4V2.9c0-.6-.5-1.2-1.1-1.2h-1.3v6.4h-4.6v2.4h4.6s0,5.7,0,5.7Z"/>
        <path class="cls-1" d="m86.6,16.2h1.2V1.7h-2.4v13.3c.1.7.6,1.2,1.2,1.2"/>
        <path class="cls-1" d="m124.8,3.7c-1.3-.1-2.6.5-3.5,1.5-.8-1-2.1-1.6-3.4-1.5-1,0-2.1.3-2.9.9-.3-.6-.9-.9-1.6-.9-.5,0-.9.1-1.3.4l-.4.3,1,2,.3-.2v8.8h2.3v-6.5c0-1.4,1.1-2.5,2.5-2.5h0c1.4,0,2.1.8,2.1,2.3v6.6h2.3v-6.5c0-1.4,1.1-2.5,2.5-2.5h0c1.4,0,2.1.8,2.1,2.3v5.5c0,.6.5,1.2,1.1,1.2h1.3v-6.7c.2-2.3-1.6-4.3-3.9-4.5-.1,0-.3,0-.5,0"/>
        <path class="cls-1" d="m76.4,8v5.2c0,2.1-1.6,3.4-4.2,3.4s-4.2-1.3-4.2-3.4c0-1.8,1.7-2.9,4.3-2.9h.2c.7,0,1.2-.5,1.2-1.2v-1.1h-1.4c-3,0-3.6-1.5-3.6-2.8,0-1.7,1.4-2.9,3.7-2.9,1,0,2.1.1,3.1.4l.4.1.5-2.3-.4-.1c-1.1-.3-2.3-.4-3.5-.4-3.8,0-6.3,2.1-6.3,5.3-.1,1.6.7,3,2.1,3.8-1.7.7-2.8,2.4-2.8,4.2,0,3.5,2.6,5.7,6.7,5.7s6.7-2.3,6.7-5.9v-2.9h2.9v-2.2h-5.4Z"/>
      </g>
    </g>
  </g>
</svg>