<?xml version="1.0" encoding="UTF-8"?>
<svg id="Layer_2" data-name="Layer 2" xmlns="http://www.w3.org/2000/svg" viewBox="0 0 84.2 30.3">
  <defs>
    <style>
      .cls-1 {
        fill: #008996;
      }

      .cls-1, .cls-2, .cls-3, .cls-4 {
        stroke-width: 0px;
      }

      .cls-2 {
        fill: #fff;
      }

      .cls-3 {
        fill: #ff8e9f;
      }

      .cls-4 {
        fill: #00c1de;
      }
    </style>
  </defs>
  <g id="Layer_1-2" data-name="Layer 1">
    <g id="littleme">
      <path class="cls-1" d="m3.1,0h78c1.7,0,3.1,1.4,3.1,3.1v24.1c0,1.7-1.4,3.1-3.1,3.1H3.1c-1.7,0-3.1-1.3-3.1-3.1V3.1C0,1.4,1.4,0,3.1,0Z"/>
      <path class="cls-2" d="m9,25.1c-1.7.1-3.2-1.1-3.3-2.8v-12.8c0-.5.3-.8.8-.9h2c.5,0,.8.3.8.8v12.3h0c.3,0,2-.4,2.1-.1l.6,1.5c.2.4,0,.9-.4,1.1h0l-1.4.6c-.4.2-.8.3-1.2.3Z"/>
      <path class="cls-2" d="m14.1,24.8c-.5,0-.8-.3-.8-.8v-7.3h-.4c-.5,0-.8-.4-.9-.8h0v-1.6c0-.5.4-.8.8-.9h3.2c.5,0,.8.3.9.8v9.8c0,.5-.3.8-.8.9h-.1l-1.9-.1Zm.7-12.3c-1,.1-1.9-.7-2-1.8v-.3c-.1-1,.7-2,1.7-2.1h.3c1-.1,1.9.7,2,1.8v.3c.1,1-.6,2-1.7,2.1h-.3Z"/>
      <path class="cls-2" d="m22.5,25.1c-1.9.1-3.6-1.3-3.7-3.3v-5h-.4c-.5,0-.8-.4-.9-.8h0v-1.6c0-.5.4-.8.8-.9h.4v-1.8c0-.4.2-.7.6-.8l1.9-.6h.2c.4,0,.8.3.8.8v2.6h1.4c.5,0,.8.3.9.8v1.7c0,.5-.4.8-.8.9h-1.4v4.4c0,.2,0,.5.2.5h.3c.1-.1.2-.1.4-.1.3,0,.6.2.7.5l.7,1.4c.2.4.1.9-.3,1.1h0c-.6,0-1.2.2-1.8.2Z"/>
      <path class="cls-2" d="m30.2,25.1c-1.9.1-3.6-1.3-3.7-3.3v-5h-.5c-.5,0-.8-.4-.9-.8h0v-1.6c0-.5.4-.8.8-.9h.4v-1.8c0-.4.2-.7.6-.8l1.9-.6h.2c.4,0,.8.3.8.8v2.6h1.4c.5,0,.8.3.9.8v1.7c0,.5-.4.8-.8.9h-1.3v4.4c0,.2,0,.5.2.5h.3c.1-.1.2-.1.4-.1.3,0,.6.2.7.5l.7,1.4c.2.4.1.9-.3,1.1h0c-.6,0-1.2.2-1.8.2Z"/>
      <path class="cls-2" d="m36.5,25.1c-1.7.1-3.2-1.1-3.3-2.8v-12.8c0-.5.3-.8.8-.9h1.9c.5,0,.8.3.9.8v12.3h0c.3,0,.6.2.8.5l.6,1.5c.2.4,0,.9-.4,1.1h0c-.5.2-.9.3-1.3.3Z"/>
      <path class="cls-2" d="m43.6,25.1c-3.4,0-5.6-2.2-5.6-5.9s2.1-5.9,5.5-5.9c2.9,0,4.6,1.5,4.6,3.9,0,1.9-1.2,3.1-3.6,3.5l-2.5.3c.4.5.9.7,1.5.7.5,0,1,0,1.4-.2h0l.9-.2h.2c.4,0,.7.3.8.6l.4,1.6c.1.4-.1.9-.5,1h0l-1,.3c-.6.2-1.4.3-2.1.3Zm-.1-8.6c-.9,0-1.7.6-1.9,1.5l2.5-.4c.7-.1.7-.3.7-.4-.1,0,0-.7-1.3-.7h0Z"/>
      <path class="cls-3" d="m63.6,24.8c-.5,0-.8-.3-.9-.8v-6c0-1.5-.7-1.5-1-1.5-1.1,0-1.7.8-1.7,2.5v4.9c0,.5-.3.8-.8.9h-2c-.5,0-.8-.3-.9-.8v-6c0-1-.3-1.5-1-1.5-.4,0-1.7,0-1.7,2.5v4.9c0,.5-.3.8-.8.9h-2c-.5,0-.8-.3-.8-.8v-9.8c0-.5.3-.8.8-.9h1.1c.4,0,.8.3.9.7v.1c.8-.7,1.7-1.1,2.8-1,1.2,0,2.3.5,3.1,1.5.8-.9,2-1.5,3.2-1.5,2.6,0,4.3,1.7,4.3,4.6v6.2c0,.5-.3.8-.8.9h-1.8Z"/>
      <path class="cls-4" d="m72.8,25.1c-3.4,0-5.6-2.2-5.6-5.9s2.1-5.9,5.5-5.9c2.9,0,4.6,1.5,4.6,3.9,0,1.9-1.2,3.1-3.6,3.5l-2.5.3c.4.5.9.7,1.5.7.5,0,1,0,1.4-.2h0l.9-.2h.2c.4,0,.7.3.8.6l.4,1.6c.1.4-.1.9-.6,1h0l-1,.3c-.5.2-1.3.3-2,.3Zm-.1-8.6c-.9,0-1.7.6-1.9,1.5l2.5-.4c.7-.1.7-.3.7-.4-.1,0-.1-.7-1.3-.7h0Z"/>
      <path class="cls-2" d="m48.2,9c.5,0,1,.3,1,.9v2.1h-1.1v-1.5c0-.3,0-.5-.3-.5s-.4.1-.4.5v1.5h-1.1v-3.5h1.1v.8h0c.2-.2.5-.3.8-.3"/>
      <path class="cls-2" d="m50.8,11.3c.2,0,.3-.1.4-.2h1.1c-.3.8-1.2,1.3-2,1s-1.3-1.2-1-2c.2-.6.8-1,1.4-1.1,1.1,0,1.7.6,1.7,1.8h-2c0,.2.2.4.4.5m.1-1.6c-.2,0-.5.1-.5.4h.9c-.1-.3-.2-.4-.4-.4"/>
      <path class="cls-2" d="m54.3,10.2c0-.1,0-.2-.1-.2-.1-.1-.2-.1-.2-.1-.4,0-.4.3-.4.7,0,.3,0,.6.3.7.2,0,.5-.1.5-.4h1.1c-.1.7-.7,1.3-1.5,1.2-.8,0-1.5-.6-1.6-1.4v-.1c0-.8.6-1.5,1.5-1.5h.1c.7-.1,1.4.4,1.5,1.2h0l-1.2-.1h0Z"/>
      <path class="cls-2" d="m56.7,8.5v1.3h0l.6-.7h1.3l-1,1.1h0l1.2,1.7h-1.3l-.6-1h0l-.2.1v.8h-1.1v-3.4h0l1.1.1h0Z"/>
      <path class="cls-2" d="m59.8,11.3c.2,0,.3-.1.4-.2h1.1v.1c-.3.8-1.3,1.2-2.1.8-.6-.3-1-.8-1-1.5,0-.8.6-1.5,1.5-1.5h.1c1.1,0,1.6.6,1.7,1.8h-2.1c-.1.2.1.4.4.5m0-1.6c-.2,0-.5.1-.5.4h.9c-.1-.3-.3-.4-.4-.4"/>
      <path class="cls-2" d="m63.2,9h.3v1h0c-.1,0-.3-.1-.4-.1-.4,0-.6.2-.6.8v1.1h-1.1v-2.8h1.1v.3h0c.2-.2.5-.4.7-.3"/>
      <path class="cls-2" d="m65.2,9.9c0-.1,0-.2-.1-.2q-.1-.1-.2-.1c-.2,0-.3,0-.3.2s0,.1.1.1h.4c.2,0,.4.1.5.1.4.1.7.3.7.8,0,.8-.8,1-1.5,1s-1.4-.3-1.5-1h1.1c0,.1,0,.2.1.2.1.1.2.1.3.1.2,0,.3-.1.3-.2s0-.2-.6-.3c-.8-.1-1.2-.4-1.2-.9,0-.7.8-.9,1.4-.9s1.4.2,1.4.9h0l-.9.2h0Z"/>
      <path class="cls-2" d="m44.7,9.9c-.1-.3-.3-.5-.6-.5-.5,0-.7.4-.7.9s.2.9.7.9c.3,0,.6-.2.6-.6h1.2c0,.7-.7,1.4-1.8,1.4-1,.1-1.9-.6-2-1.6v-.2c0-1,.8-1.8,1.8-1.8h.2c1.1,0,1.7.5,1.8,1.4h0l-1.2.1h0Z"/>
    </g>
  </g>
</svg>