<?xml version="1.0" encoding="UTF-8"?>
<svg id="Layer_2" data-name="Layer 2" xmlns="http://www.w3.org/2000/svg" xmlns:xlink="http://www.w3.org/1999/xlink" viewBox="0 0 110.9 26.4">
  <defs>
    <style>
      .cls-1 {
        fill: #b7d433;
      }

      .cls-1, .cls-2, .cls-3 {
        stroke-width: 0px;
      }

      .cls-2 {
        fill: none;
      }

      .cls-3 {
        fill: #00a389;
      }

      .cls-4 {
        clip-path: url(#clippath);
      }
    </style>
    <clipPath id="clippath">
      <rect class="cls-2" width="110.9" height="26.4"/>
    </clipPath>
  </defs>
  <g id="Layer_1-2" data-name="Layer 1">
    <g id="medirite">
      <g class="cls-4">
        <g>
          <path class="cls-3" d="m18.8,14.2V1.3c0-.2-.1-.5-.2-.7-.2-.5-.9-.7-2-.7s-1.8.2-2,.7c-.9,1.1-2.6,3.3-5.2,6.7L4.3.6l-.2-.1c-.3-.3-.5-.4-.7-.4-.4-.1-.7-.1-1.2-.1C1.1,0,.6.2.2.7c-.1.2-.2.5-.2.7v13.7c0,.2.1.5.2.7.2.5.9.7,1.9.7,1.1,0,1.6-.2,2-.7.1-.2.2-.5.2-.7v-7.4c.2.4.7.8,1.2,1.6.9,1.3,1.5,2.1,1.9,2.5l.2.2c.2.2.5.4.7.5.7.4,1.4.4,2.1,0,.2-.1.5-.2.6-.5l.5-.6c.2-.2.7-.9,1.4-2,.6-.8,1.1-1.4,1.4-1.9v6.7c0,.5,0,.8.1,1.3.1.2.2.4.4.5.2.1.5.2.7.2.4.1.7.1,1.2.1.4,0,.8,0,1.2-.1.6-.2.9-.8.9-2m9.9-5.7c0,.2-.1.6-.7.6h-2.8c.1-.5.4-.7.7-1.1.4-.4.9-.6,1.4-.6.4,0,.7.1,1.1.2.2.3.3.5.3.9m3.6,2.2c.5-.5.7-1.2.7-2.2,0-.9-.2-1.9-.8-2.7-1.1-1.5-2.7-2.3-4.9-2.3-1.9,0-3.6.6-4.9,1.8s-2,2.8-2,4.7c0,1.5.5,3,1.5,4.2.6.7,1.3,1.3,2.1,1.6.9.5,2.1.6,3.2.6,3.5,0,5.2-.7,5.2-2.2,0-.4-.1-.8-.4-1.2-.4-.8-.8-1.3-1.4-1.3-.4,0-.7.1-.9.2l-.2.1c-.7.2-1.4.2-2.1.2-.5,0-1.1-.1-1.4-.5-.4-.1-.6-.5-.7-.8h5.3c.6.5,1.3.2,1.7-.2m10.1-.5c0,.5-.2.9-.6,1.3-.4.4-.8.6-1.3.6s-1.1-.2-1.4-.6h0c-.4-.4-.6-.8-.6-1.3s.2-.9.5-1.3c.4-.4.8-.6,1.4-.6.5,0,1.1.2,1.4.6.5.4.6.8.6,1.3m4.5,4.8V1.8c0-.2-.1-.5-.2-.7-.1-.2-.5-.5-.7-.6-.8-.2-1.6-.2-2.5,0-.4.1-.6.2-.7.6h0c-.1.2-.2.5-.2.7v3.1c-.7-.7-1.6-.9-2.6-.9-1.4,0-2.8.6-4,1.9-2.3,2.3-2.3,6.2,0,8.7h0c1.2,1.2,2.5,1.9,4,1.9.9,0,1.9-.2,2.7-.9.2.7.9.9,1.9.9,1.2,0,1.9-.2,2.1-.7.2-.3.2-.5.2-.8m6.1-12.4c.2-.5.2-1.1,0-1.5-.2-.5-.9-.7-2-.7h0c-1.1,0-1.8.2-2,.7s-.2,1.1,0,1.5c.2.5.9.7,2,.7,1,0,1.7-.2,2-.7m.2,12.4V5.5c0-.5-.1-.8-.5-1.1s-.9-.5-1.6-.5c-1.1,0-1.8.2-2,.7-.1.2-.2.5-.2.7v9.7c0,.2.1.5.2.7.2.5.9.7,2,.7s1.8-.2,2-.7c0-.2,0-.4.1-.7m11-7.3c.4-.6.5-1.3.5-2,0-.5-.1-.8-.4-1.2-.2-.2-.5-.5-.8-.5-.2-.1-.6-.1-.8-.2-.4,0-.6-.1-.9,0-1.6,0-2.2.9-2.3,1.1l-.1.1c0-.1-.1-.4-.2-.5-.2-.4-.9-.6-1.9-.6-1.1,0-1.8.2-2,.7-.1.2-.2.5-.2.6v9.6c0,.5.1.8.5,1.1.4.2.9.5,1.8.5,1.1,0,1.6-.2,2-.7.1-.2.2-.5.2-.7v-5.6c0-.4.2-.7.5-.9.2-.2.6-.4.9-.4.9,0,1.1.7,2.1.6.5,0,.8-.4,1.1-1m6-5.1c.2-.5.2-1.1,0-1.5-.2-.5-.9-.7-2-.7h0c-1.1,0-1.8.2-2,.7s-.2,1.1,0,1.5c.2.5.9.7,2,.7,1.1,0,1.6-.2,2-.7m.1,12.4V5.5c0-.5-.1-.8-.5-1.1-.4-.4-.8-.5-1.6-.5-1.1,0-1.8.2-2,.7-.1.2-.2.5-.2.7v9.7c0,.2.1.5.2.7.2.5.9.7,2,.7s1.8-.2,2-.7c0-.2.1-.4.1-.7m9.5-8.8c0-1.1-.2-1.6-.7-1.9-.2-.1-.5-.2-.7-.2h-.8c-.4,0-.8,0-1.4.1v-1.8c0-.5,0-.8-.1-1.2-.2-.6-.9-.9-2.1-.9-1.1,0-1.8.2-2,.7-.1.2-.2.4-.2.6v10.1c0,1.8.5,3,1.3,3.8.9.7,2.1,1.2,3.8,1.2h.8c.2,0,.5-.1.7-.2.5-.2.7-.8.7-1.9,0-.9-.2-1.4-.6-1.6-.2-.1-.5-.2-.7-.2h-.8c-.2,0-.5,0-.6-.2s-.2-.5-.1-.8v-3l1.4.1h.8c.2,0,.5-.1.7-.2.4-.8.6-1.4.6-2.5m8.7,2.3c0,.2-.1.6-.7.6h-2.8c.1-.5.4-.7.7-1.1.4-.4.9-.6,1.4-.6.4,0,.7.1,1.1.2.2.3.3.5.3.9m4.3,0c0-.9-.2-1.9-.8-2.7-1.1-1.5-2.7-2.3-4.9-2.3-1.9,0-3.5.6-4.9,1.8s-2,2.8-2,4.7c0,1.5.5,3,1.5,4.2.6.7,1.3,1.3,2.1,1.6.9.5,2.1.6,3.2.6,3.5,0,5.2-.7,5.2-2.2,0-.4-.1-.8-.4-1.2-.4-.7-.8-1.2-1.4-1.2-.4,0-.7.1-.9.2l-.2.1c-.7.2-1.4.2-2.1.2-.5,0-1.1-.1-1.4-.5-.4-.1-.6-.5-.7-.8h5.4c.6,0,1.3-.2,1.6-.7.5-.1.7-.9.7-1.8"/>
          <path class="cls-1" d="m110.1,5.9c-.2-.1-.5-.2-.8-.2h-3.8v-3.5c0-.5-.2-.9-.6-1.3-.5-.4-1.2-.5-2.1-.5-1.4,0-2.1.2-2.5.8-.1.2-.2.5-.2.8v3.8h-3.8c-.2,0-.6.1-.8.2-.6.2-.8,1.1-.8,2.5,0,1.3.2,2.1.8,2.5.2.1.5.2.8.2h3.8v3.7c0,.2.1.6.2.8.2.6,1.1.8,2.5.8s2.1-.2,2.5-.8c.1-.2.2-.5.2-.8v-3.8h3.5c.5,0,.9-.2,1.3-.6.4-.5.5-1.2.5-2.1.1-1.5-.2-2.3-.7-2.5"/>
          <path class="cls-1" d="m88.8,23.5l-1.1-3h-1.4l1.8,4.6c0,.2-.2.4-.5.2-.2,0-.4-.1-.6-.2l-.4.8c.4.2.7.4,1.2.4.8,0,1.2-.4,1.5-1.3l1.8-4.7h-1.4l-.9,3.2Zm-4.7,1.6c.7,0,1.4-.2,1.9-.8l-.7-.8c-.4.2-.7.5-1.1.5-.7,0-1.2-.6-1.2-1.3h0c0-.7.5-1.3,1.2-1.3.5,0,.8.2,1.1.5l.8-.8c-.5-.5-1.2-.8-1.9-.8-1.3,0-2.3.9-2.3,2.3v.1h0c-.1,1.2.8,2.3,2.2,2.4h0m-5.5-.9c-.5,0-.7-.2-.7-.6h0c0-.5.4-.6.9-.6.2,0,.6,0,.8.2v.2c.1.4-.4.8-1,.8m-.3.8c.5,0,1.1-.2,1.4-.6v.5h1.3v-2.7c0-.5-.1-1.1-.5-1.4-.4-.4-.8-.5-1.5-.5-.6,0-1.2.1-1.8.4l.4.9c.4-.1.8-.2,1.3-.2.7,0,.9.2.9.8v.1c-.4-.1-.7-.2-1.2-.2-1.1,0-1.9.5-1.9,1.4h0c-.1,1,.6,1.5,1.6,1.5m-9.4-.1h1.3v-2.6c0-.6.2-.9.8-.9.5,0,.7.4.7.9v2.6h1.3v-2.6c0-.6.2-.9.8-.9s.7.4.7.9v2.6h1.3v-2.9c0-1.1-.6-1.6-1.5-1.6-.6,0-1.2.2-1.5.7-.2-.5-.7-.7-1.3-.7s-1.1.2-1.4.7v-.7h-1.3l.1,4.5Zm-3.6,0h1.4v-1.7c0-1.1.5-1.6,1.4-1.6h.1v-1.4c-.8,0-1.2.4-1.4,1.1v-.8h-1.3l-.2,4.4h0Zm-3.3-.7c-.5,0-.7-.2-.7-.6h0c0-.5.4-.6.9-.6.2,0,.6,0,.8.2v.2c0,.4-.4.8-1,.8m-.4.8c.5,0,1.1-.2,1.4-.6v.5h1.3v-2.7c0-.5-.1-1.1-.5-1.4-.4-.4-.8-.5-1.5-.5-.6,0-1.2.1-1.8.4l.4.9c.4-.1.8-.2,1.3-.2.7,0,.9.2.9.8v.1c-.4-.1-.7-.2-1.2-.2-1.1,0-1.9.5-1.9,1.4h0c0,1,.7,1.5,1.6,1.5m-6.6-.1h1.3v-2.6c0-.6.4-.9.8-.9s.8.4.8.9v2.6h1.3v-2.9c0-1.1-.6-1.6-1.5-1.6-.6,0-1.1.2-1.3.7v-2.3h-1.4s0,6.1,0,6.1Zm-4.3-3v-1.9h1.1c.7,0,1.1.4,1.1.9h0c0,.5-.4.9-1.1.9l-1.1.1Zm-1.3,3h1.3v-1.8h.9c1.3,0,2.5-.7,2.5-2.1h0c0-1.2-.8-2.1-2.3-2.1h-2.5l.1,6Z"/>
        </g>
      </g>
    </g>
  </g>
</svg>