<?xml version="1.0" encoding="UTF-8"?>
<svg id="Layer_2" data-name="Layer 2" xmlns="http://www.w3.org/2000/svg" viewBox="0 0 1481.29 158.71">
  <defs>
    <style>
      .cls-1 {
        fill: #ed1c24;
      }

      .cls-1, .cls-2, .cls-3 {
        stroke-width: 0px;
      }

      .cls-2 {
        fill: #fff;
      }

      .cls-3 {
        fill: #005aaa;
      }
    </style>
  </defs>
  <g id="Layer_1-2" data-name="Layer 1">
    <path class="cls-1" d="m278.81,153.06c-.8.89-1.58,1.79-2.38,1.8-13.52.09-27.04.06-41.14.06v-30.08c0-11.76-5.85-17.63-17.58-17.63-5.98,0-11.95,0-18.32,0v47.49h-49.48v-23.96c-2.55,3.88-4.6,7.48-7.11,10.72-6.21,7.99-15.03,12.03-24.5,14.13-7.43,1.65-15.17,2.36-22.8,2.56-14.36.39-28.73.11-43.1.11-12.5,0-24.17-3.72-34.29-10.49-8.59-5.75-13.23-15.21-15.35-25.28-1.57-7.46-2.34-15.18-2.55-22.81-.39-14.36-.14-28.73-.1-43.1.04-13.08,3.02-25.47,10.16-36.45,4.75-7.31,11.96-12.05,20.18-14.99C40.17,1.67,50.15-.2,60.57.02c12.83.27,25.67-.09,38.5.11,13.38.2,26.03,4.01,36.98,11.34,5.69,3.81,9.43,10.55,13.87,15.77,0-5.13.22-11.14-.08-17.13-.2-3.86,1.21-5.08,4.92-5.05,13.53.13,27.06.13,40.59-.01,3.19-.03,4.04,1.1,4.01,4.14-.13,14.08-.06,28.15-.06,42.76,6.51,0,12.98.77,19.19-.19,8.31-1.28,15.58-10.18,15.21-18.42-.36-8.07.05-16.18-.14-24.27-.07-3.19,1.09-4.04,4.14-4.01,12.13.14,24.27.11,36.41.02,3.39-.02,4.87.92,4.81,4.73-.23,13.25-.09,26.5-.09,39.75,0,12.16-4.86,21.33-16.23,26.53-.86.39-1.71.8-2.99,1.4,6.32,2.1,11.5,5.23,14.89,10.75,3.32,5.4,4.47,11.23,4.39,17.56-.2,15.62-.07,31.24-.07,47.27M106.04,57.05c-1.92-6.56-6.44-10.43-12.73-12.64-8.37-2.94-17.08-2.16-25.45-1.33-9.89.98-16.05,7.21-18.53,17.34-3,12.26-2.68,24.49-.49,36.64,1.53,8.47,6.21,15.45,15.46,16.91,7.43,1.18,15.15,2.07,22.57,1.36,10.9-1.03,18.49-6.84,20.54-18.56,2.3-13.16,2.4-26.16-1.36-39.72Z"/>
    <path class="cls-3" d="m729.94,96.33V5.1h10.91c10.74,0,21.48.19,32.21-.11,3.6-.1,5.56,1.28,7.08,4.15,4.63,8.77,9.24,17.55,13.97,26.26,7.37,13.58,14.84,27.1,22.26,40.65,1.06,1.93,2.07,3.89,3.81,5.56V5.43h45.04v150.07c-.86.08-1.91.25-2.96.25-13.39.02-26.77-.04-40.16.06-2.16.02-3.25-.54-4.37-2.57-7.67-13.9-15.59-27.67-23.4-41.49-5.86-10.38-11.66-20.79-17.53-31.17-.41-.72-1.1-1.27-2.33-2.65v77.56h-44.54v-59.14Z"/>
    <path class="cls-3" d="m580.96,152.28V5.1h4.38c29.43,0,58.87-.4,88.3.18,12.88.25,25.05,4.35,34.17,14.22,5.7,6.17,9.14,13.58,10.53,22.1,1.89,11.68-.74,22.31-6.96,31.88-3.16,4.86-8.1,8.55-12.23,12.76,12.8,8.2,17.65,21.52,19.12,36.75.89,9.24,2.12,18.46,3.31,27.67.2,1.56,1.02,3.04,1.65,4.83h-48.13c-1.24-9.65-2.39-19.48-3.8-29.28-.61-4.28-1.37-8.62-2.72-12.71-2.15-6.48-7.46-9.32-13.88-9.56-8.76-.33-17.55-.08-26.72-.08v51.89c-4.37,0-8.37,0-12.36,0-10.46,0-20.92-.07-31.39.05-2.4.03-3.81-.36-3.28-3.53m60.68-81.89c4.18,0,8.36.06,12.54-.01,10.02-.18,14.71-3.76,16.89-12.77,1.01-4.18-2.17-11.63-6.2-12.97-3.55-1.18-7.42-1.61-11.19-1.86-8.51-.56-17.04-.81-25.6-1.19v28.8h13.56Z"/>
    <path class="cls-3" d="m1300.05,144.88c-.05-.36-.1-.73.05-1.55-.16-1.74-.53-3.03-.89-4.31-.05-.36-.1-.73.07-1.59.3-3.22,2.11-6.18-.91-8.46-.05-.36-.1-.73.05-1.55-.16-1.74-.53-3.03-.89-4.31-.05-.36-.1-.73.01-1.49-.18-.89-.51-1.37-.85-1.86-1.52-3.56-2.25-7.89-4.76-10.47-2.61-2.69-6.86-4.87-10.57-5.19-8.68-.74-17.47-.24-26.67-.24,0,16.67,0,33.06-.31,49.86-.65.91-1,1.4-1.35,1.89-14.25.04-28.5.08-43.13-.32-.39-50.31-.39-100.18-.39-150.05,30.78-.05,61.56-.39,92.33.1,6.54.1,13.03,3.23,19.73,5.53,1.28.93,2.38,1.3,3.48,1.67,10.37,6.02,16.71,15.03,19.16,26.65,2.34,11.1.62,21.68-4.88,31.69-3.53,6.42-8.34,11.4-14.7,14.88,1.58,1.22,3.23,2.5,5.23,4.04.48.45.66.58.87.66,8.64,7.9,12.05,18.24,13.49,29.39,1.3,10.11,2.26,20.27,3.41,30.41.12,1.05.54,2.07.65,3.56-.34.9-.51,1.35-.68,1.79-14.53.04-29.06.08-44.06-.09-.6-.39-.78-.52-.99-.6-.33-.91-.66-1.81-.8-3.17-.17-1.2-.52-1.95-.87-2.7-.05-.36-.1-.73.03-1.51-.17-1.17-.52-1.92-.87-2.67m-4.65-79.61c1.1-1.97,2.62-3.83,3.17-5.94.37-1.43-.63-3.22-1.15-5.48-1.21-6.02-4.61-9.95-10.82-10.99-2.29-.39-4.64-.57-6.97-.59-8.27-.07-16.53-.03-24.73-.03v28.14c9.05,0,17.98.54,26.79-.23,4.48-.39,8.75-3.14,13.71-4.88Z"/>
    <path class="cls-3" d="m1448.89,44.44h-45.79v17.53h69.86v36.63h-69.82v16.84h78.14v40.1h-125.11V5.42h124.22v39.02h-31.51Z"/>
    <path class="cls-3" d="m461.88,149.31c-11.15-6.16-17.71-15.71-21.37-27.18-1.67-5.24-2.52-10.96-2.56-16.48-.23-31.79-.11-63.59-.11-95.38v-4.87h46.87v4.31c0,28.87-.15,57.73.15,86.6.05,4.73,1.74,9.55,3.25,14.13,2.86,8.69,14.79,10.99,21.59,9.88,12.2-2,16.61-10.22,16.74-22.02.33-30.88.11-61.76.11-92.92h47.71v4.39c0,31.1.07,62.19-.03,93.29-.05,16.51-5.42,30.98-18.18,41.87-7.85,6.7-17.36,11.25-27.5,12.24-13.5,1.32-27.19,1.35-40.77.91-9.14-.3-17.57-4.29-25.91-8.77Z"/>
    <path class="cls-3" d="m1110.76,74.57c.28,9.56.46,18.71.86,27.84.42,9.47,6.7,15.72,16.14,17.46,7.72,1.42,14.59.44,19.69-5.66,2.41-2.89,3.94-6.79,4.99-10.48.96-3.37.96-7.09.97-10.65.07-29.14.04-58.27.04-87.69h46.87v4.33c0,31.94.01,63.87,0,95.81,0,12.93-4.48,24.44-12.65,34.16-8.44,10.05-20,15.98-32.73,17.44-13.73,1.57-27.86,2.2-41.57.78-16.14-1.68-30.74-8.44-40.17-22.72-5.93-8.97-9.37-18.94-9.34-29.98.11-31.66.04-63.31.04-94.97v-4.86h46.87v69.18Z"/>
    <path class="cls-3" d="m362.51,112.24v43.27h-47.47V5.34h115.87v39.06h-68.2v17.36h58.92v36.9h-59.12v13.58Z"/>
    <path class="cls-3" d="m1057.05,5.93c.05,11.73.1,23.46.11,35.19,0,.62-.4,1.24-.93,2.25-.49.54-.62.71-.7.93h-40.2c0,36.53,0,72.77-.31,109.43-.65.91-1,1.4-1.35,1.89-14.25.04-28.5.08-43.13-.32-.39-35.15-.37-69.86-.45-104.57,0-1.54-.96-3.07-1.47-4.61-1.15-.56-2.29-1.59-3.44-1.6-12.32-.12-24.63-.08-37.42-.3-.6-.39-.78-.52-.99-.6-.04-12.3-.08-24.61.09-37.38.39-.6.52-.78.6-.99,18.36-.05,36.73-.12,55.09-.13,24.35-.02,48.7,0,73.52.22.6.39.78.52.99.6Z"/>
    <path class="cls-3" d="m919.93,87.96v67.53h-47.46V5.37h47.46v82.6Z"/>
    <path class="cls-3" d="m1209.16,5.2c.36,49.92.36,99.79.36,150.04-.54.15-1.49-.02-1.54-.34-.2-1.22-.13-2.49-.13-3.74,0-47.19-.01-94.37.04-141.56,0-1.48.59-2.97,1.27-4.4Z"/>
    <path class="cls-3" d="m968.55,46.5c.57,1.15,1.53,2.68,1.53,4.22.08,34.71.06,69.42.07,104.51-.56-.55-1.58-1.47-1.6-2.4-.13-7.78-.07-15.57-.07-23.36,0-27.53.01-55.06.08-82.97Z"/>
    <path class="cls-3" d="m1298.32,129.34c3.07,1.91,1.27,4.87.93,7.81-.5-2.33-.74-4.89-.93-7.81Z"/>
    <path class="cls-3" d="m1297.48,123.44c.42.96.78,2.25.91,3.72-.48-1.01-.72-2.2-.91-3.72Z"/>
    <path class="cls-3" d="m1299.15,139.34c.42.96.78,2.25.91,3.72-.48-1.01-.72-2.2-.91-3.72Z"/>
    <path class="cls-3" d="m1324.94,12.29c-.98-.11-2.08-.48-3.2-1.14,1.01.11,2.05.49,3.2,1.14Z"/>
    <path class="cls-3" d="m1300.83,149.35c.41.46.76,1.21.89,2.11-.47-.51-.71-1.17-.89-2.11Z"/>
    <path class="cls-3" d="m1299.99,145.16c.41.46.76,1.21.89,2.11-.47-.51-.71-1.17-.89-2.11Z"/>
    <path class="cls-3" d="m1347.9,155.68c-.11-.5.06-.94.44-1.51.09.44-.04,1-.44,1.51Z"/>
    <path class="cls-3" d="m1253.34,155.68c.06-.55.4-1.03,1-1.56-.07.51-.39,1.06-1,1.56Z"/>
    <path class="cls-3" d="m1013.96,155.68c.06-.55.4-1.03,1-1.56-.07.51-.39,1.06-1,1.56Z"/>
    <path class="cls-3" d="m1296.64,120.02c.4.23.73.72.87,1.33-.44-.27-.68-.67-.87-1.33Z"/>
    <path class="cls-3" d="m1302.53,155.15c.25-.14.42-.01.64.32-.17.06-.42-.02-.64-.32Z"/>
    <path class="cls-3" d="m927.23,5.21c.14.25,0,.42-.32.64-.06-.17.02-.42.32-.64Z"/>
    <path class="cls-3" d="m1330.77,90.24c-.25.14-.42.01-.64-.32.17-.06.42.02.64.32Z"/>
    <path class="cls-3" d="m1055.75,44.33c-.14-.25,0-.42.32-.64.06.17-.02.42-.32.64Z"/>
    <path class="cls-3" d="m926.74,43.83c.25-.14.42-.01.64.32-.17.06-.42-.02-.64-.32Z"/>
    <path class="cls-3" d="m1057.08,5.71c-.25.14-.42.01-.64-.32.17-.06.42.02.64.32Z"/>
    <path class="cls-2" d="m106.2,57.35c3.6,13.26,3.5,26.26,1.2,39.42-2.05,11.73-9.63,17.53-20.54,18.56-7.43.7-15.14-.19-22.57-1.36-9.25-1.46-13.94-8.45-15.46-16.91-2.19-12.14-2.5-24.37.49-36.64,2.48-10.13,8.63-16.36,18.53-17.34,8.38-.83,17.09-1.61,25.45,1.33,6.29,2.21,10.82,6.08,12.89,12.94Z"/>
    <path class="cls-2" d="m641.22,70.39h-13.14v-28.8c8.56.38,17.09.62,25.6,1.19,3.77.25,7.64.68,11.19,1.86,4.03,1.34,7.22,8.8,6.2,12.97-2.18,9.01-6.87,12.59-16.89,12.77-4.18.08-8.36.01-12.96.01Z"/>
    <path class="cls-2" d="m1294.79,65.33c-4.36,1.68-8.63,4.43-13.11,4.82-8.81.77-17.74.23-26.79.23v-28.14c8.19,0,16.46-.04,24.73.03,2.33.02,4.68.21,6.97.59,6.21,1.05,9.6,4.98,10.82,11.66-.87,4.05-1.75,7.43-2.62,10.81Z"/>
    <path class="cls-3" d="m1295.1,65.3c.57-3.35,1.45-6.73,2.38-10.46.45,1.27,1.45,3.06,1.08,4.49-.54,2.11-2.06,3.97-3.47,5.97Z"/>
  </g>
</svg>