<?xml version="1.0" encoding="UTF-8"?>
<svg id="Layer_2" data-name="Layer 2" xmlns="http://www.w3.org/2000/svg" viewBox="0 0 52.4 25.3">
  <defs>
    <style>
      .cls-1, .cls-2, .cls-3, .cls-4 {
        stroke-width: 0px;
      }

      .cls-1, .cls-4 {
        fill: #ed1c24;
      }

      .cls-2, .cls-3 {
        fill: #00a651;
      }

      .cls-2, .cls-4 {
        fill-rule: evenodd;
      }
    </style>
  </defs>
  <g id="Layer_1-2" data-name="Layer 1">
    <g id="okfranchise">
      <g id="OKFranchise">
        <path class="cls-4" d="m38.2,20.4v4.9h.3c1,0,1.5-.1,1.5-2.4s-.7-2.5-1.3-2.5h-.5Zm1.3,2.5c0,.8,0,1.8-.8,1.8v-3.8c.9-.1.8,1.3.8,2Z"/>
        <polygon class="cls-1" points="40.7 20.4 41.2 20.4 41.2 25.3 40.7 25.3 40.7 20.4"/>
        <polygon class="cls-1" points="41.5 20.4 42.3 25.3 42.7 25.3 43.5 20.4 43 20.4 42.8 22.1 42.5 23.7 42.5 24.1 42.5 24.1 42.1 20.4 41.5 20.4"/>
        <polygon class="cls-1" points="43.8 20.4 44.3 20.4 44.3 25.3 43.8 25.3 43.8 20.4"/>
        <path class="cls-1" d="m46.3,20.5c-.2-.1-.3-.2-.5-.2-.6,0-.9.5-.9,1.2,0,1.3,1,1.5,1,2.4,0,.3-.2.7-.4.7s-.4-.1-.5-.3v.6c.1.2.3.2.5.3.6,0,.9-.6.9-1.3,0-.5-.2-1-.5-1.4l-.4-.4c-.1-.2-.2-.3-.2-.5,0-.3.2-.6.4-.6s.3.1.4.2c.1-.1.2-.7.2-.7Z"/>
        <polygon class="cls-1" points="46.9 20.4 47.4 20.4 47.4 25.3 46.9 25.3 46.9 20.4"/>
        <path class="cls-4" d="m49,20.3c-1,0-1,1.7-1,2.5,0,.9,0,2.5,1,2.5s1-1.7,1-2.5-.1-2.5-1-2.5Zm0,.6c.4,0,.4.9.4,1.9s-.1,1.9-.4,1.9-.5-.8-.5-1.8c0-1.1,0-2,.5-2Z"/>
        <polygon class="cls-1" points="51 21.5 51 21.5 51.8 25.3 52.4 25.3 52.4 20.4 51.8 20.4 51.8 22.2 51.9 24.1 51.9 24.1 51.1 20.4 50.5 20.4 50.5 25.3 51.1 25.3 51.1 23.5 51 21.8 51 21.5"/>
        <polygon class="cls-3" points="19.2 20.4 19.2 25.3 19.8 25.3 19.8 23 20.6 23 20.6 22.5 19.8 22.5 19.8 20.9 20.6 20.9 20.6 20.4 19.2 20.4"/>
        <path class="cls-2" d="m21.1,25.3h.5v-2.4h0l.7,2.4h.5l-.7-2.4c.4-.1.5-.8.5-1.2,0-1.2-.6-1.2-1-1.2h-.6c.1,0,.1,4.8.1,4.8Zm.5-2.7v-1.6h.1c.3,0,.4.3.4.9,0,.3-.1.7-.5.7Z"/>
        <path class="cls-2" d="m23.8,20.4l-.9,4.9h.5l.2-1h.8l.2,1h.5l-.9-4.9h-.4Zm.5,3.4h-.6l.3-2.4h0l.2,1.7.1.7Z"/>
        <polygon class="cls-3" points="25.8 21.5 25.8 21.5 26.8 25.3 27.2 25.3 27.2 20.4 26.7 20.4 26.7 22.2 26.8 24.1 26.8 24.1 25.9 20.4 25.4 20.4 25.4 25.3 25.9 25.3 25.9 23.5 25.9 21.8 25.8 21.5"/>
        <path class="cls-3" d="m29.4,20.5c-.1-.1-.3-.2-.4-.2-1,0-1.1,1.6-1.1,2.5,0,1,.2,2.4,1.2,2.4.2,0,.3,0,.4-.2v-.6c-.1.1-.3.2-.4.2-.7,0-.8-1.2-.8-1.8s0-1.9.7-1.9c.1,0,.3.1.3.1,0,0,.1-.5.1-.5Z"/>
        <polygon class="cls-3" points="29.8 20.4 29.8 25.3 30.3 25.3 30.3 22.9 31.1 22.9 31.1 25.3 31.7 25.3 31.7 20.4 31.1 20.4 31.1 22.3 30.3 22.3 30.3 20.4 29.8 20.4"/>
        <polygon class="cls-3" points="32.3 20.4 32.8 20.4 32.8 25.3 32.3 25.3 32.3 20.4"/>
        <path class="cls-3" d="m34.6,20.5c-.2-.1-.3-.2-.5-.2-.6,0-.9.5-.9,1.2,0,1.3,1,1.5,1,2.4,0,.3-.2.7-.4.7s-.4-.1-.5-.3v.6c.2.2.4.3.6.3.6,0,.9-.6.9-1.3,0-.5-.2-1-.5-1.4l-.3-.5c-.1-.2-.2-.3-.2-.5,0-.3.2-.6.4-.6s.3.1.4.2v-.6Z"/>
        <polygon class="cls-3" points="35.3 20.4 35.3 25.3 36.7 25.3 36.7 24.7 35.8 24.7 35.8 23 36.6 23 36.6 22.5 35.8 22.5 35.8 20.9 36.7 20.9 36.7 20.4 35.3 20.4"/>
        <path class="cls-4" d="m10,20.4c8,0,10-1.7,10-9.4v-1.7C20,2.3,18.3,0,10,0,2-.1,0,1.8,0,9.7v1.3c0,8,2.3,9.4,10,9.4Zm.1-5.4c-3,0-3.9-1.1-4-4.1v-1.4c.1-3,1-4.2,4-4.2s4,1.2,4,4.2v1.3c0,3-1.1,4.2-4,4.2Z"/>
        <path class="cls-1" d="m25.4.7h-6.2v19.1h6.2v-6.1h3.1c.4.1.8.3,1.1.5.3.3.6.8.6,1.2v4.3h5.4v-6.9c-.1-.8-.4-1.6-1-2.2-.5-.4-1.1-.7-1.7-.7.8-.2,1.4-.6,2-1.1.5-.6.8-1.3.9-2.1V.6h-5.6v3.8c0,.5-.3,1-.6,1.4s-.8.7-1.3.8h-2.8V.7h-.1Z"/>
      </g>
    </g>
  </g>
</svg>