<?xml version="1.0" encoding="UTF-8"?>
<svg id="Layer_2" data-name="Layer 2" xmlns="http://www.w3.org/2000/svg" viewBox="0 0 70.82 18.22">
  <defs>
    <style>
      .cls-1, .cls-2 {
        stroke-width: 0px;
      }

      .cls-2 {
        fill: #fff;
      }
    </style>
  </defs>
  <g id="Layer_1-2" data-name="Layer 1">
    <g id="petshop">
      <path class="cls-1" d="m20.14.1h2v3.4h4.2v1.9h-4.2v4.8c0,.3,0,.7.1,1,.2.7.7,1.1,1.4,1.3.5.1,1,.1,1.5,0,.6-.2,1-.5,1.2-1.1,0-.1.1-.2.1-.2h2.3v.1c.1.5.3.8.7,1,.3.2.6.3.9.3.7.1,1.3.1,2-.1.3-.1.6-.2.8-.5.3-.3.4-.7.3-1.1,0-.3-.2-.5-.5-.7s-.5-.2-.8-.3c-.5-.1-1.1-.2-1.6-.2-.6-.1-1.3-.2-1.8-.4-.3-.1-.7-.3-.9-.5-.4-.4-.7-.8-.8-1.4-.2-.9,0-1.8.5-2.6.4-.6,1-1,1.7-1.2.8-.3,1.5-.3,2.3-.3.7.1,1.3.2,1.9.5.8.4,1.3,1,1.6,1.9.1.3.1.5.1.8-.1,0-1.6.1-2,0v-.1c-.1-.4-.3-.7-.6-.9-.3-.2-.6-.3-1-.4-.5-.1-1-.1-1.5.1-.3.1-.6.3-.9.5-.2.3-.3.6-.3.9s.2.5.4.7c.2.1.5.2.7.3.5.1,1,.2,1.5.2.7.1,1.4.2,2.1.5.2.1.3.1.5.2.7.4,1.2,1,1.3,1.8.1,1-.1,1.9-.7,2.6-.4.4-.8.8-1.3,1s-1,.3-1.6.4c-.8.1-1.7,0-2.5-.2-.7-.2-1.3-.5-1.8-1l-.1-.1s-.1,0-.1.1c-.5.6-1.2.9-2,1.1-1,.2-1.9.2-2.8-.1-1.3-.4-2.1-1.3-2.5-2.7-.1-.5-.2-1-.2-1.5V.2c.3.1.4,0,.4-.1Z"/>
      <path class="cls-1" d="m61.34,12.4v5.7c-.1,0-1.8.1-2,0v-9.1c0-.9.2-1.8.6-2.7.6-1.3,1.6-2.2,3-2.6,1.5-.5,2.9-.5,4.4.1,1.8.7,2.9,2,3.3,3.9.3,1.2.2,2.4-.2,3.5-.7,1.7-1.9,2.8-3.7,3.2-1,.2-2,.2-3-.1-.9-.3-1.6-.9-2.1-1.7-.2-.1-.2-.2-.3-.2h0Zm7.3-3.5c0-.3-.1-.6-.1-.9-.3-1.3-1.1-2.2-2.4-2.6-.6-.2-1.2-.2-1.8-.1-1.3.2-2.2.9-2.7,2.1-.4,1-.4,1.9-.1,2.9.4,1.1,1.2,1.8,2.3,2.2.6.2,1.2.2,1.8.1,1.2-.2,2.1-.8,2.6-1.9.3-.6.4-1.2.4-1.8Z"/>
      <path class="cls-1" d="m2.04,14.7H.04C.04,14.6-.06,1.8.04,1.5h5.6c.8,0,1.5.1,2.2.4,1.3.5,2.1,1.5,2.4,2.9.2.8.1,1.7-.1,2.5-.4,1.3-1.2,2.1-2.4,2.6-.5.2-1.1.3-1.6.3H2.14c-.1,1.5-.1,3-.1,4.5Zm0-6.4h3.7c.3,0,.7-.1,1-.2.8-.2,1.3-.8,1.5-1.6.1-.5.1-.9,0-1.4-.2-.8-.7-1.3-1.5-1.6-.3-.1-.7-.2-1-.2h-3.7v5Z"/>
      <path class="cls-1" d="m46.64,14.2h-2v-5.5c0-.5-.1-1.1-.2-1.6-.4-1.1-1.2-1.7-2.3-1.9-.6-.1-1.3-.1-1.9.1-1,.3-1.6,1.1-1.9,2.1-.1.4-.1.8-.1,1.2v5.4c-.2,0-1.8.1-2,0V0h2v5.1h0c0-.1.1-.1.1-.2.7-1.1,1.7-1.6,2.9-1.8.7-.1,1.5,0,2.2.2,1.4.5,2.4,1.4,2.9,2.8.3.7.3,1.5.3,2.3v5.8Z"/>
      <path class="cls-1" d="m58.64,8.8c0,.9-.2,1.8-.6,2.6-.6,1.2-1.5,2.1-2.7,2.6-1.7.7-3.3.7-5-.1-1.7-.7-2.7-2-3-3.8-.2-1.1-.2-2.1.2-3.1.5-1.4,1.4-2.5,2.8-3.1,1.9-.8,3.7-.8,5.5.2,1.5.8,2.4,2.1,2.7,3.8.1.2.1.6.1.9Zm-5.7-3.7c-.2,0-.5,0-.7.1-1.3.2-2.3,1-2.7,2.3-.3.7-.3,1.5-.1,2.3.3,1.3,1,2.2,2.2,2.6.6.2,1.3.3,2,.2,1.3-.2,2.2-.9,2.7-2.1.4-1,.4-2.1,0-3.1-.4-.9-1-1.5-1.9-1.9-.5-.3-1-.3-1.5-.4Z"/>
      <path class="cls-1" d="m18.74,3.6v1.7h-7.3v-1.7c2.5,0,4.9,0,7.3,0Z"/>
      <path class="cls-1" d="m18.74,8.1v1.7h-7.3v-1.7h7.3Z"/>
      <path class="cls-1" d="m18.74,12.6v1.7c-.1,0-7,.1-7.3,0v-1.7c.2-.1,7-.1,7.3,0Z"/>
      <path class="cls-1" d="m46.54,16.8h-2.1c0,.4.2.7.6.8.5.1.8,0,1.1-.5.1,0,.3.1.4.2,0,.1-.1.2-.1.3-.3.5-.8.7-1.4.6-.6-.1-1-.5-1.1-1.1s0-1.1.5-1.5c.5-.5,1.8-.5,2.1.7.1.1.1.3,0,.5Zm-.5-.5c0-.2-.1-.4-.2-.5-.3-.3-.9-.3-1.1,0-.1.1-.2.3-.2.5.2.1,1.3.1,1.5,0Z"/>
      <path class="cls-1" d="m55.94,17.1c.1,0,.3.1.4.1v.1c-.2.4-.5.6-.8.7-.9.2-1.7-.4-1.8-1.3,0-.5.1-1,.5-1.3.4-.4.9-.4,1.4-.3.5.2.7.5.8,1,0,.2.1.4,0,.6h-2.1c0,.4.3.7.6.8.4.3.7.1,1-.4Zm-.1-.7v-.2c-.2-.6-1-.6-1.3-.3-.1.1-.2.3-.2.5h1.5Z"/>
      <path class="cls-1" d="m47.94,18h-.5v-2.8h.5v.3s.1,0,.1-.1c.3-.4.8-.4,1.1-.3.4.1.6.5.6.9v1.9h-.5v-1.8c0-.3-.2-.5-.5-.6-.3,0-.6.1-.7.4,0,.1-.1.3-.1.4v1.3c0,.3,0,.4,0,.4Z"/>
      <path class="cls-1" d="m41.74,16.1c-.1,0-.3.1-.4.1,0,0,0-.1-.1-.1-.1-.3-.4-.5-.7-.5s-.6.1-.8.4c-.2.4-.2.8,0,1.2.2.3.4.4.8.4.3,0,.5-.2.7-.4,0,0,0-.1.1-.1.2.1.3.1.5.2-.2.4-.4.7-.9.8-.9.3-1.8-.4-1.8-1.4,0-.5.1-1,.6-1.3.5-.4,1.4-.4,1.8.1.1.2.2.4.2.6Z"/>
      <path class="cls-1" d="m52.84,17.1c.1.1.3.1.4.2q0,.1-.1.1c-.3.7-1.2.9-1.9.5-.9-.5-.9-2-.1-2.5.5-.3,1.4-.4,1.8.1.1.1.2.3.3.5-.1.1-.3.1-.5.2,0,0,0-.1-.1-.1-.1-.3-.4-.5-.7-.5s-.6.1-.8.4c-.2.4-.2.7,0,1.1.2.3.4.4.8.4.3,0,.6-.1.7-.5.1.2.1.1.2.1-.1,0,0,0,0,0Z"/>
      <path class="cls-1" d="m36.34,17.3c.2-.1.3-.1.5-.2q0,.1.1.1c.1.3.6.5.9.3.1-.1.2-.2.2-.3,0-.2-.1-.3-.2-.3-.2-.1-.4-.1-.5-.1s-.3-.1-.4-.1c-.4-.2-.5-.7-.3-1.1.2-.3.4-.4.8-.5.2,0,.4,0,.6.1.3.1.4.3.5.6-.2.1-.3.1-.5.2,0-.1-.1-.1-.1-.2-.1-.3-.5-.4-.8-.2-.1.1-.2.2-.2.3,0,.2.1.2.3.3.1,0,.3.1.4.1s.2.1.4.1c.3.1.5.3.5.6s-.1.6-.4.8c-.5.4-1.3.2-1.7-.3,0,.1,0,0-.1-.2Z"/>
      <path class="cls-1" d="m42.54,18v-2.8h.5v2.8h-.5Z"/>
      <path class="cls-1" d="m42.84,14.6c-.2,0-.4-.2-.4-.4s.2-.4.4-.4.4.2.4.4c0,.2-.2.4-.4.4Z"/>
      <path class="cls-2" d="m68.64,8.9c0,.6-.1,1.2-.4,1.8-.5,1.1-1.4,1.7-2.6,1.9-.6.1-1.2.1-1.8-.1-1.1-.3-1.9-1.1-2.3-2.2-.3-1-.3-2,.1-2.9.5-1.2,1.4-1.9,2.7-2.1.6-.1,1.2-.1,1.8.1,1.3.4,2.1,1.3,2.4,2.6,0,.2.1.5.1.9Z"/>
      <path class="cls-2" d="m2.04,8.3V3.4h3.7c.3,0,.7.1,1,.2.8.2,1.3.8,1.5,1.6.1.5.1.9,0,1.4-.2.8-.7,1.4-1.5,1.6-.3.1-.6.1-1,.2h-3.5q-.1-.1-.2-.1Z"/>
      <path class="cls-2" d="m52.94,5.1c.5,0,1,.1,1.4.3.9.4,1.6,1,1.9,1.9.4,1,.4,2,0,3.1-.5,1.2-1.4,1.9-2.7,2.1-.7.1-1.3.1-2-.2-1.2-.4-2-1.3-2.2-2.6-.2-.8-.1-1.5.1-2.3.5-1.3,1.4-2,2.7-2.3.4.1.6.1.8,0Z"/>
      <path class="cls-2" d="m46.04,16.3h-1.5c0-.2.1-.3.2-.5.3-.3.8-.3,1.1,0,.1.2.2.3.2.5Z"/>
      <path class="cls-2" d="m55.84,16.4h-1.5c0-.2.1-.4.2-.5.3-.3,1.1-.3,1.3.3v.2Z"/>
    </g>
  </g>
</svg>