<?xml version="1.0" encoding="UTF-8"?>
<svg id="Layer_2" data-name="Layer 2" xmlns="http://www.w3.org/2000/svg" viewBox="0 0 97.05 13.64">
  <defs>
    <style>
      .cls-1 {
        fill: #ec1c24;
        stroke-width: 0px;
      }
    </style>
  </defs>
  <g id="Layer_1-2" data-name="Layer 1">
    <g>
      <path class="cls-1" d="m73.25.6c-.1.4-.3.5-.6.9-.2.3-.3.6-.5,1-.7,1.8.6,3.4,2.3,1.7.4-.5.7-1.4,1.5-1.3.3.4.3.8.3,1.4,0,1.3,0,2.8-.1,4.1,0,.6-.1,1.4-.3,1.9-.1.3-.5.6-.9.8-.4.2-.4,0-.5.6-.1.5.1.7.6,1,1.6.7,4.6.7,6.3.1.5-.2.7-.4.8-.7.1-.6,0-.8-.5-1-1.2-.6-1.1-1.1-1-3.1,0-1.5,0-3.1.1-4.5l.1-.5c.6-.2.7.1.9.6.3.2.4.7.8,1.1.8.7,3,.9,2.1-2.7,1.2.5,1.1,1.1,1.2,3,0,1.1.1,4.9-.3,5.9-.3.6-.8.6-1.1,1-.4.5-.1,1.1.5,1.3.7.1,7-.1,10,.3,1.2.1,1.7-1.3,1.9-2.2.3-1.1.5-3-1.2-2.5-1.2.7-.7,2.1-3.4,2.3-1,0-2,.1-2.2-.7-.2-.7-.1-2,.1-2.6.5-.1.8-.1,1.3,0,.2.7.2,1,.5,1.5q.2.3.5.2c1.4-.2,1.4-2.3,1.3-3.6v-.7c-.2-.8-.3-1.7-1.5-1.4-.2.1-.3.2-.3.3-.1.5-.4,1.2-.6,1.4-.4.2-.8.2-1.2,0-.2-.3-.2-.9-.2-1.5l.2-1.4c.9-.3,2.6-.4,3.5.2.9.7.8,1.7,2.2,1.2.2-.1.3-.2.3-.3.6-1.4.2-3.8-1.8-3.6-3.5.4-6.9,0-8.8.1-.9.1-1,.3-1.3,1-.5-.7-.9-1.4-2.2-1.1-.9.2-5.2.2-6.5.1-.6,0-1-.2-1.4-.2-.3.1-.6.5-.9.6h0Z"/>
      <path class="cls-1" d="m57.55,2.4c2.3-.5,2.1,3.8.1,3.3-.4-.1-.3-.4-.3-.9,0-.8-.1-1.8.2-2.4Zm8.4,0c.1.1.3.2.4.4.3.7.2,5.9.1,6.8,0,.5-.1.8-.4,1.1-1.4,1.3-1.3-.8-1.7-2.2-.4-1.3-1.2-1.5-2.3-2,.1-.4,0-.3.5-.5,1.1-.6,1.6-1.4,1.5-2.7-.1-3.4-4.2-3.2-6.7-3.1h-4.1c-.4,0-.8.2-1.1.2l-.2.3c-.7,1.1.9,1.1,1.1,2,.2.9.1,2.9.1,3.9,0,5.6-.6,3.8-1.2,4.8-.4.7.1.9.3,1.3.4,0,.9.2,1.5.3.5.1,1.1.1,1.7.1,1,0,2.3,0,3-.5.9-1.1-.4-1.5-.7-1.9s-.1-2.4-.1-3.1c1.7-.2,2,1.8,2.4,3.6.3.4.3,1.2,1.5,1.7.8.3,2,.3,2.9.2.6-.1.8-.3,1.2-.4.3-.1.8.2,1.3.2,1,.2,5.3.5,5.4-1,.1-1.1-1.1-.6-1.2-2.2-.1-1.5-.1-5,.1-6.4.1-.9.1-.8.7-1.2.3-.2.6-.6.4-1.1-.2-.7-1.5-.9-2.4-.9C68.95,0,67.75.1,66.75.3c-1.2.3-1.5.7-1.1,1.6-.1.3.1.4.3.5h0Zm-53.3.4c.3.7.2,6,.1,7-.1,1.5-.2.8-.9,1.4-.6.5-.3,1.2.2,1.5,1.3.8,6.8.9,6.2-1.1-.1-.5-.6-.6-.8-.9-.4-.3-.4-2.2-.2-2.8.6-.4,2.4-.5,3-.1.3.5.2,1.4.1,2.1-.1,1.4-.4.7-.9,1.4-.5.6-.2,1.2.3,1.5s1.4.4,2,.4c1.2.1,3.5.1,4.1-.7.6-.9-.5-1.4-.6-1.5-.5-.3-.4-1-.4-2-.1-1.7-.1-3.5,0-5.2.1-1.4,0-1.1.9-1.7.9-.7.4-1.5-.5-1.7-.8-.2-1.4-.2-2.4-.2s-4.2,0-3.4,1.7c.3.7.7.1.9,1.2.2.5.1,1.5,0,2-.6.2-2.2.4-2.8,0-.5-.3-.3-1.9-.2-2.2.2-.8.7-.5,1-1.1.6-1-.5-1.3-1.2-1.4C16.15.2,15.05,0,13.35.3c-1.9.3-1.9,1.4-1.3,1.8.4.5.3.1.6.7h0Z"/>
      <path class="cls-1" d="m30.45,5.5c-.2-2.2,1.2-3.5,2.7-1.9,1.2,1.3,2.5,5.6,1.1,6.8-.8.6-1.8-.1-2.1-.5-.8-1-1.5-2.8-1.7-4.4Zm-4.8,2.1c.1,1.4.9,3.1,2,4,.8.7,1.9,1.5,3.3,1.8,2.2.5,3.7.2,5.3-.7,1.5-.9,2.5-1.8,3.1-3.5.3-.8.4-1.6.4-2.5-.1-5-4.9-7.7-9.5-6.2-3.2.9-4.9,3.7-4.6,7.1h0ZM1.25,1.8c-.2.2-.4.4-.5.7-.4.8-.6,2-.3,2.9.1.2.1.5.3.8.6,1.3,2.3,2.3,3.7,2.7,1,.3,2.7,1.1,1.5,1.8-.9.5-2.2.1-2.8-.5-.1-.1-.8-.8-.9-.9-.4-.6-.7-1.4-1.8-1.1-.5.4-.5.8-.4,1.7.1.6.2,1.3.4,1.8.3.6.5.8,1.2,1.1,2.5,1.1,5.9,1.2,8.2-.5.5-.4.5-.3.9-.8.2-.2.3-.4.6-1,.4-.8.3-2.5,0-3.3-.5-1.1-1.7-1.8-2.8-2.2-1.3-.5-3.2-.7-3.1-1.9.9-.7,2-.4,2.7.2,1,.8,1.2,1.4,2.4,1.3h.1c.6-.4,1-.9.7-1.9-.4-1.3-1.2-2.5-2.6-2.2-.8.1-1.3-.1-2.1-.2-1-.1-2.1-.1-3.1.2-1,.1-1.8.6-2.3,1.3h0Z"/>
      <path class="cls-1" d="m45.55,2.6c.3-.4,1,0,1.2.2.7.7.7,2.6.1,3.2-.1.1-.7.5-1.1.3-.6-.1-.3-3.6-.2-3.7h0Zm-5.9-1.9c-.8,1.2.7,1.2,1.1,1.8.5.7.3,5.1.2,6.2-.1,2.2-.1,1.9-.8,2.4-.9.6-.5,1.5.4,1.9,1,.3,6.6.9,6.2-1.2-.1-.5-.5-.5-.8-.9,0,0-.3.2-.4-.9-.1-.5,0-1,0-1.5,2,.1,3.9,0,5.3-1.4,1-1,1.2-3.1.8-4.5-.3-.8-.9-1.5-1.6-1.8C48.55,0,46.85.1,45.05.2c-1,.1-1.9.1-2.9.1s-1.9-.1-2.5.4h0Z"/>
    </g>
  </g>
</svg>