<?xml version="1.0" encoding="UTF-8"?>
<svg id="Layer_2" data-name="Layer 2" xmlns="http://www.w3.org/2000/svg" viewBox="0 0 44.61 12.54">
  <defs>
    <style>
      .cls-1 {
        stroke-width: 0px;
      }
    </style>
  </defs>
  <g id="Layer_1-2" data-name="Layer 1">
    <g>
      <path class="cls-1" d="m7.24.15v7.54c0,.49-.21.96-.65,1.42-.58.59-1.24.88-2,.91-.77,0-1.41-.25-1.93-.75-.47-.48-.7-1-.7-1.6V.15H0v7.52c0,1.11.43,2.12,1.27,2.98.89.87,2,1.32,3.34,1.32h0c1.29-.04,2.42-.54,3.37-1.5.79-.85,1.2-1.79,1.2-2.8V.15h-1.94Z"/>
      <rect class="cls-1" x="27.54" y=".15" width="1.95" height="11.73"/>
      <path class="cls-1" d="m35.74,11.25c.85.51,1.83.78,2.82.78.61,0,1.22-.1,1.8-.3l.6-.27c.26-.13.51-.28.75-.44l1.52,1.52,1.38-1.38-1.49-1.49h0c.06-.08.11-.16.17-.26l.02-.03c.13-.2.25-.4.34-.6.43-.84.64-1.77.64-2.77,0-1.1-.26-2.11-.77-3.02h0c-.06-.11-.13-.22-.2-.33v-.02c-.49-.73-1.11-1.34-1.86-1.81-.87-.55-1.85-.83-2.91-.83s-2.03.28-2.91.83c-.73.46-1.35,1.06-1.81,1.76,0,0-.02.02-.03.03-.08.12-.15.23-.22.36-.51.91-.77,1.92-.77,3.02,0,.83.16,1.63.46,2.36.07.16.15.33.25.53.05.09.09.17.14.25.24.41.53.8.86,1.14.22.23.46.44.71.62l.51.35Zm5.98-2.98l-2.27-2.27-1.38,1.38,2.24,2.24c-.53.29-1.11.45-1.75.45-.7,0-1.34-.18-1.9-.54-.58-.36-1.05-.86-1.4-1.48-.35-.61-.52-1.3-.52-2.05s.18-1.44.52-2.05c.35-.62.82-1.12,1.4-1.48.57-.35,1.21-.53,1.9-.53s1.34.18,1.91.53c.58.36,1.05.86,1.4,1.47.34.61.52,1.3.52,2.06s-.17,1.44-.52,2.05c-.06.07-.11.14-.15.22Z"/>
      <polygon class="cls-1" points="21.58 .15 21.58 8.08 14.12 .15 13.04 .15 13.04 11.17 13.04 11.87 13.04 11.88 14.99 11.88 14.99 11.87 14.99 11.17 14.99 3.91 22.49 11.87 23.53 11.87 23.53 .15 21.58 .15"/>
    </g>
  </g>
</svg>